{"glyphs":{"0":{"ha":1106,"x_min":0,"x_max":0,"o":"m 551 -21 b 1094 488 897 -21 1094 188 b 553 993 1094 789 901 993 b 11 485 208 993 11 786 b 551 -21 11 183 201 -21 z m 553 424 b 493 486 513 424 493 450 b 553 549 493 522 513 549 b 613 486 593 549 613 522 b 553 424 613 450 593 424 z "},"1":{"ha":649,"x_min":0,"x_max":0,"o":"m 135 0 l 621 0 l 621 972 l 28 972 l 28 582 l 135 582 z "},"2":{"ha":1014,"x_min":0,"x_max":0,"o":"m 46 0 l 988 0 l 986 390 l 710 390 l 708 400 l 746 424 b 954 710 857 496 954 596 b 476 993 954 872 815 993 b 29 863 281 993 133 938 l 107 507 b 254 589 135 544 207 589 b 343 515 304 589 343 557 b 278 368 343 472 314 419 l 46 50 z "},"3":{"ha":1083,"x_min":0,"x_max":0,"o":"m 511 -21 b 1064 319 807 -21 1064 122 b 806 565 1064 464 946 565 l 732 565 l 725 579 l 1025 925 l 1025 972 l 133 972 l 133 618 l 379 618 l 385 606 l 281 522 l 281 486 l 444 486 b 539 450 518 486 539 475 b 421 406 539 424 513 406 b 161 486 343 406 258 431 l 4 117 b 511 -21 101 47 304 -21 z "},"4":{"ha":831,"x_min":0,"x_max":0,"o":"m 140 274 l 140 274 b 183 204 176 274 183 249 b 140 135 183 161 176 135 b 128 136 136 135 131 135 l 128 272 b 140 274 132 274 136 274 z m 351 224 l 296 224 l 296 271 l 361 271 l 361 306 l 256 306 l 256 104 l 361 104 l 361 138 l 296 138 l 296 190 l 351 190 z m 138 101 l 138 101 b 224 204 200 101 224 133 b 139 308 224 274 201 308 b 88 303 125 308 106 306 l 88 104 b 138 101 106 101 126 101 z m 397 306 l 397 306 b 388 104 393 257 389 169 l 426 104 b 429 249 426 151 428 201 l 431 249 l 458 135 l 496 135 l 524 249 b 528 104 526 201 528 151 l 568 104 b 560 306 565 169 563 257 l 504 306 l 478 194 l 451 306 z m 669 101 l 669 101 b 744 204 725 101 744 133 b 669 308 744 275 725 308 b 596 204 614 308 596 275 b 669 101 596 133 614 101 z m 669 274 b 704 204 699 274 704 250 b 669 135 704 160 699 135 b 636 204 642 135 636 160 b 669 274 636 250 642 274 z m 656 689 l 656 689 b 439 429 540 689 439 429 b 669 529 497 486 569 518 b 742 601 699 533 742 558 b 656 689 742 631 728 689 z m 193 617 l 193 617 b 107 529 136 617 107 574 b 193 457 107 486 150 457 b 410 357 281 457 353 429 b 193 617 410 357 324 617 z m 436 824 l 436 824 b 313 822 394 864 343 853 b 325 710 283 790 294 740 b 410 486 388 650 419 578 b 436 824 410 486 529 733 z "},"5":{"ha":1069,"x_min":0,"x_max":0,"o":"m 513 -21 b 1051 324 854 -21 1051 113 b 607 576 1051 504 922 585 b 553 574 589 575 571 575 l 553 614 l 925 614 l 924 972 l 94 972 l 94 458 b 369 500 164 479 261 500 b 561 451 494 500 561 483 b 356 403 561 414 504 403 b 58 454 278 403 124 426 l 6 50 b 513 -21 88 1 406 -21 z "},"6":{"ha":1125,"x_min":0,"x_max":0,"o":"m 561 -21 b 1108 382 922 -21 1108 163 b 761 714 1108 575 976 714 b 710 710 736 714 738 714 l 907 972 l 371 972 l 181 724 b 17 382 101 619 17 493 b 561 -21 17 154 221 -21 z m 558 381 b 499 439 521 381 499 407 b 558 499 499 472 521 499 b 621 439 600 499 621 471 b 558 381 621 407 599 381 z "},"7":{"ha":1013,"x_min":0,"x_max":0,"o":"m 593 -6 l 1018 924 l 1018 972 l 64 972 l 64 556 l 268 556 l 274 544 l 11 0 z "},"8":{"ha":1144,"x_min":0,"x_max":0,"o":"m 572 -21 b 1128 281 914 -21 1128 96 b 867 517 1128 400 1035 517 l 867 532 b 1079 735 993 532 1079 640 b 572 993 1079 879 931 993 b 67 735 215 993 67 879 b 279 532 67 640 156 532 l 279 517 b 17 281 108 517 17 400 b 572 -21 17 96 231 -21 z m 572 547 b 526 592 542 547 526 564 b 572 636 526 618 542 636 b 619 592 603 636 619 618 b 572 547 619 564 603 547 z m 572 360 b 514 414 536 360 514 381 b 572 471 514 447 536 471 b 629 414 610 471 629 447 b 572 360 629 381 610 360 z "},"9":{"ha":1125,"x_min":0,"x_max":0,"o":"m 218 0 l 753 0 l 957 268 b 1108 590 1036 372 1108 479 b 563 993 1108 818 903 993 b 17 590 203 993 17 810 b 364 258 17 397 149 258 b 414 263 388 258 386 258 z m 565 475 b 504 535 524 475 504 503 b 565 593 504 565 525 593 b 626 535 604 593 626 565 b 565 475 626 501 604 475 z "}," ":{"ha":307,"x_min":0,"x_max":0,"o":""},"!":{"ha":831,"x_min":0,"x_max":0,"o":"m 140 274 l 140 274 b 183 204 176 274 183 249 b 140 135 183 161 176 135 b 128 136 136 135 131 135 l 128 272 b 140 274 132 274 136 274 z m 351 224 l 296 224 l 296 271 l 361 271 l 361 306 l 256 306 l 256 104 l 361 104 l 361 138 l 296 138 l 296 190 l 351 190 z m 138 101 l 138 101 b 224 204 200 101 224 133 b 139 308 224 274 201 308 b 88 303 125 308 106 306 l 88 104 b 138 101 106 101 126 101 z m 397 306 l 397 306 b 388 104 393 257 389 169 l 426 104 b 429 249 426 151 428 201 l 431 249 l 458 135 l 496 135 l 524 249 b 528 104 526 201 528 151 l 568 104 b 560 306 565 169 563 257 l 504 306 l 478 194 l 451 306 z m 669 101 l 669 101 b 744 204 725 101 744 133 b 669 308 744 275 725 308 b 596 204 614 308 596 275 b 669 101 596 133 614 101 z m 669 274 b 704 204 699 274 704 250 b 669 135 704 160 699 135 b 636 204 642 135 636 160 b 669 274 636 250 642 274 z m 656 689 l 656 689 b 439 429 540 689 439 429 b 669 529 497 486 569 518 b 742 601 699 533 742 558 b 656 689 742 631 728 689 z m 193 617 l 193 617 b 107 529 136 617 107 574 b 193 457 107 486 150 457 b 410 357 281 457 353 429 b 193 617 410 357 324 617 z m 436 824 l 436 824 b 313 822 394 864 343 853 b 325 710 283 790 294 740 b 410 486 388 650 419 578 b 436 824 410 486 529 733 z "},"\"":{"ha":831,"x_min":0,"x_max":0,"o":"m 140 274 l 140 274 b 183 204 176 274 183 249 b 140 135 183 161 176 135 b 128 136 136 135 131 135 l 128 272 b 140 274 132 274 136 274 z m 351 224 l 296 224 l 296 271 l 361 271 l 361 306 l 256 306 l 256 104 l 361 104 l 361 138 l 296 138 l 296 190 l 351 190 z m 138 101 l 138 101 b 224 204 200 101 224 133 b 139 308 224 274 201 308 b 88 303 125 308 106 306 l 88 104 b 138 101 106 101 126 101 z m 397 306 l 397 306 b 388 104 393 257 389 169 l 426 104 b 429 249 426 151 428 201 l 431 249 l 458 135 l 496 135 l 524 249 b 528 104 526 201 528 151 l 568 104 b 560 306 565 169 563 257 l 504 306 l 478 194 l 451 306 z m 669 101 l 669 101 b 744 204 725 101 744 133 b 669 308 744 275 725 308 b 596 204 614 308 596 275 b 669 101 596 133 614 101 z m 669 274 b 704 204 699 274 704 250 b 669 135 704 160 699 135 b 636 204 642 135 636 160 b 669 274 636 250 642 274 z m 656 689 l 656 689 b 439 429 540 689 439 429 b 669 529 497 486 569 518 b 742 601 699 533 742 558 b 656 689 742 631 728 689 z m 193 617 l 193 617 b 107 529 136 617 107 574 b 193 457 107 486 150 457 b 410 357 281 457 353 429 b 193 617 410 357 324 617 z m 436 824 l 436 824 b 313 822 394 864 343 853 b 325 710 283 790 294 740 b 410 486 388 650 419 578 b 436 824 410 486 529 733 z "},"#":{"ha":831,"x_min":0,"x_max":0,"o":"m 140 274 l 140 274 b 183 204 176 274 183 249 b 140 135 183 161 176 135 b 128 136 136 135 131 135 l 128 272 b 140 274 132 274 136 274 z m 351 224 l 296 224 l 296 271 l 361 271 l 361 306 l 256 306 l 256 104 l 361 104 l 361 138 l 296 138 l 296 190 l 351 190 z m 138 101 l 138 101 b 224 204 200 101 224 133 b 139 308 224 274 201 308 b 88 303 125 308 106 306 l 88 104 b 138 101 106 101 126 101 z m 397 306 l 397 306 b 388 104 393 257 389 169 l 426 104 b 429 249 426 151 428 201 l 431 249 l 458 135 l 496 135 l 524 249 b 528 104 526 201 528 151 l 568 104 b 560 306 565 169 563 257 l 504 306 l 478 194 l 451 306 z m 669 101 l 669 101 b 744 204 725 101 744 133 b 669 308 744 275 725 308 b 596 204 614 308 596 275 b 669 101 596 133 614 101 z m 669 274 b 704 204 699 274 704 250 b 669 135 704 160 699 135 b 636 204 642 135 636 160 b 669 274 636 250 642 274 z m 656 689 l 656 689 b 439 429 540 689 439 429 b 669 529 497 486 569 518 b 742 601 699 533 742 558 b 656 689 742 631 728 689 z m 193 617 l 193 617 b 107 529 136 617 107 574 b 193 457 107 486 150 457 b 410 357 281 457 353 429 b 193 617 410 357 324 617 z m 436 824 l 436 824 b 313 822 394 864 343 853 b 325 710 283 790 294 740 b 410 486 388 650 419 578 b 436 824 410 486 529 733 z "},"$":{"ha":831,"x_min":0,"x_max":0,"o":"m 140 274 l 140 274 b 183 204 176 274 183 249 b 140 135 183 161 176 135 b 128 136 136 135 131 135 l 128 272 b 140 274 132 274 136 274 z m 351 224 l 296 224 l 296 271 l 361 271 l 361 306 l 256 306 l 256 104 l 361 104 l 361 138 l 296 138 l 296 190 l 351 190 z m 138 101 l 138 101 b 224 204 200 101 224 133 b 139 308 224 274 201 308 b 88 303 125 308 106 306 l 88 104 b 138 101 106 101 126 101 z m 397 306 l 397 306 b 388 104 393 257 389 169 l 426 104 b 429 249 426 151 428 201 l 431 249 l 458 135 l 496 135 l 524 249 b 528 104 526 201 528 151 l 568 104 b 560 306 565 169 563 257 l 504 306 l 478 194 l 451 306 z m 669 101 l 669 101 b 744 204 725 101 744 133 b 669 308 744 275 725 308 b 596 204 614 308 596 275 b 669 101 596 133 614 101 z m 669 274 b 704 204 699 274 704 250 b 669 135 704 160 699 135 b 636 204 642 135 636 160 b 669 274 636 250 642 274 z m 656 689 l 656 689 b 439 429 540 689 439 429 b 669 529 497 486 569 518 b 742 601 699 533 742 558 b 656 689 742 631 728 689 z m 193 617 l 193 617 b 107 529 136 617 107 574 b 193 457 107 486 150 457 b 410 357 281 457 353 429 b 193 617 410 357 324 617 z m 436 824 l 436 824 b 313 822 394 864 343 853 b 325 710 283 790 294 740 b 410 486 388 650 419 578 b 436 824 410 486 529 733 z "},"%":{"ha":831,"x_min":0,"x_max":0,"o":"m 140 274 l 140 274 b 183 204 176 274 183 249 b 140 135 183 161 176 135 b 128 136 136 135 131 135 l 128 272 b 140 274 132 274 136 274 z m 351 224 l 296 224 l 296 271 l 361 271 l 361 306 l 256 306 l 256 104 l 361 104 l 361 138 l 296 138 l 296 190 l 351 190 z m 138 101 l 138 101 b 224 204 200 101 224 133 b 139 308 224 274 201 308 b 88 303 125 308 106 306 l 88 104 b 138 101 106 101 126 101 z m 397 306 l 397 306 b 388 104 393 257 389 169 l 426 104 b 429 249 426 151 428 201 l 431 249 l 458 135 l 496 135 l 524 249 b 528 104 526 201 528 151 l 568 104 b 560 306 565 169 563 257 l 504 306 l 478 194 l 451 306 z m 669 101 l 669 101 b 744 204 725 101 744 133 b 669 308 744 275 725 308 b 596 204 614 308 596 275 b 669 101 596 133 614 101 z m 669 274 b 704 204 699 274 704 250 b 669 135 704 160 699 135 b 636 204 642 135 636 160 b 669 274 636 250 642 274 z m 656 689 l 656 689 b 439 429 540 689 439 429 b 669 529 497 486 569 518 b 742 601 699 533 742 558 b 656 689 742 631 728 689 z m 193 617 l 193 617 b 107 529 136 617 107 574 b 193 457 107 486 150 457 b 410 357 281 457 353 429 b 193 617 410 357 324 617 z m 436 824 l 436 824 b 313 822 394 864 343 853 b 325 710 283 790 294 740 b 410 486 388 650 419 578 b 436 824 410 486 529 733 z "},"&":{"ha":831,"x_min":0,"x_max":0,"o":"m 140 274 l 140 274 b 183 204 176 274 183 249 b 140 135 183 161 176 135 b 128 136 136 135 131 135 l 128 272 b 140 274 132 274 136 274 z m 351 224 l 296 224 l 296 271 l 361 271 l 361 306 l 256 306 l 256 104 l 361 104 l 361 138 l 296 138 l 296 190 l 351 190 z m 138 101 l 138 101 b 224 204 200 101 224 133 b 139 308 224 274 201 308 b 88 303 125 308 106 306 l 88 104 b 138 101 106 101 126 101 z m 397 306 l 397 306 b 388 104 393 257 389 169 l 426 104 b 429 249 426 151 428 201 l 431 249 l 458 135 l 496 135 l 524 249 b 528 104 526 201 528 151 l 568 104 b 560 306 565 169 563 257 l 504 306 l 478 194 l 451 306 z m 669 101 l 669 101 b 744 204 725 101 744 133 b 669 308 744 275 725 308 b 596 204 614 308 596 275 b 669 101 596 133 614 101 z m 669 274 b 704 204 699 274 704 250 b 669 135 704 160 699 135 b 636 204 642 135 636 160 b 669 274 636 250 642 274 z m 656 689 l 656 689 b 439 429 540 689 439 429 b 669 529 497 486 569 518 b 742 601 699 533 742 558 b 656 689 742 631 728 689 z m 193 617 l 193 617 b 107 529 136 617 107 574 b 193 457 107 486 150 457 b 410 357 281 457 353 429 b 193 617 410 357 324 617 z m 436 824 l 436 824 b 313 822 394 864 343 853 b 325 710 283 790 294 740 b 410 486 388 650 419 578 b 436 824 410 486 529 733 z "},"'":{"ha":831,"x_min":0,"x_max":0,"o":"m 140 274 l 140 274 b 183 204 176 274 183 249 b 140 135 183 161 176 135 b 128 136 136 135 131 135 l 128 272 b 140 274 132 274 136 274 z m 351 224 l 296 224 l 296 271 l 361 271 l 361 306 l 256 306 l 256 104 l 361 104 l 361 138 l 296 138 l 296 190 l 351 190 z m 138 101 l 138 101 b 224 204 200 101 224 133 b 139 308 224 274 201 308 b 88 303 125 308 106 306 l 88 104 b 138 101 106 101 126 101 z m 397 306 l 397 306 b 388 104 393 257 389 169 l 426 104 b 429 249 426 151 428 201 l 431 249 l 458 135 l 496 135 l 524 249 b 528 104 526 201 528 151 l 568 104 b 560 306 565 169 563 257 l 504 306 l 478 194 l 451 306 z m 669 101 l 669 101 b 744 204 725 101 744 133 b 669 308 744 275 725 308 b 596 204 614 308 596 275 b 669 101 596 133 614 101 z m 669 274 b 704 204 699 274 704 250 b 669 135 704 160 699 135 b 636 204 642 135 636 160 b 669 274 636 250 642 274 z m 656 689 l 656 689 b 439 429 540 689 439 429 b 669 529 497 486 569 518 b 742 601 699 533 742 558 b 656 689 742 631 728 689 z m 193 617 l 193 617 b 107 529 136 617 107 574 b 193 457 107 486 150 457 b 410 357 281 457 353 429 b 193 617 410 357 324 617 z m 436 824 l 436 824 b 313 822 394 864 343 853 b 325 710 283 790 294 740 b 410 486 388 650 419 578 b 436 824 410 486 529 733 z "},"(":{"ha":831,"x_min":0,"x_max":0,"o":"m 140 274 l 140 274 b 183 204 176 274 183 249 b 140 135 183 161 176 135 b 128 136 136 135 131 135 l 128 272 b 140 274 132 274 136 274 z m 351 224 l 296 224 l 296 271 l 361 271 l 361 306 l 256 306 l 256 104 l 361 104 l 361 138 l 296 138 l 296 190 l 351 190 z m 138 101 l 138 101 b 224 204 200 101 224 133 b 139 308 224 274 201 308 b 88 303 125 308 106 306 l 88 104 b 138 101 106 101 126 101 z m 397 306 l 397 306 b 388 104 393 257 389 169 l 426 104 b 429 249 426 151 428 201 l 431 249 l 458 135 l 496 135 l 524 249 b 528 104 526 201 528 151 l 568 104 b 560 306 565 169 563 257 l 504 306 l 478 194 l 451 306 z m 669 101 l 669 101 b 744 204 725 101 744 133 b 669 308 744 275 725 308 b 596 204 614 308 596 275 b 669 101 596 133 614 101 z m 669 274 b 704 204 699 274 704 250 b 669 135 704 160 699 135 b 636 204 642 135 636 160 b 669 274 636 250 642 274 z m 656 689 l 656 689 b 439 429 540 689 439 429 b 669 529 497 486 569 518 b 742 601 699 533 742 558 b 656 689 742 631 728 689 z m 193 617 l 193 617 b 107 529 136 617 107 574 b 193 457 107 486 150 457 b 410 357 281 457 353 429 b 193 617 410 357 324 617 z m 436 824 l 436 824 b 313 822 394 864 343 853 b 325 710 283 790 294 740 b 410 486 388 650 419 578 b 436 824 410 486 529 733 z "},")":{"ha":831,"x_min":0,"x_max":0,"o":"m 140 274 l 140 274 b 183 204 176 274 183 249 b 140 135 183 161 176 135 b 128 136 136 135 131 135 l 128 272 b 140 274 132 274 136 274 z m 351 224 l 296 224 l 296 271 l 361 271 l 361 306 l 256 306 l 256 104 l 361 104 l 361 138 l 296 138 l 296 190 l 351 190 z m 138 101 l 138 101 b 224 204 200 101 224 133 b 139 308 224 274 201 308 b 88 303 125 308 106 306 l 88 104 b 138 101 106 101 126 101 z m 397 306 l 397 306 b 388 104 393 257 389 169 l 426 104 b 429 249 426 151 428 201 l 431 249 l 458 135 l 496 135 l 524 249 b 528 104 526 201 528 151 l 568 104 b 560 306 565 169 563 257 l 504 306 l 478 194 l 451 306 z m 669 101 l 669 101 b 744 204 725 101 744 133 b 669 308 744 275 725 308 b 596 204 614 308 596 275 b 669 101 596 133 614 101 z m 669 274 b 704 204 699 274 704 250 b 669 135 704 160 699 135 b 636 204 642 135 636 160 b 669 274 636 250 642 274 z m 656 689 l 656 689 b 439 429 540 689 439 429 b 669 529 497 486 569 518 b 742 601 699 533 742 558 b 656 689 742 631 728 689 z m 193 617 l 193 617 b 107 529 136 617 107 574 b 193 457 107 486 150 457 b 410 357 281 457 353 429 b 193 617 410 357 324 617 z m 436 824 l 436 824 b 313 822 394 864 343 853 b 325 710 283 790 294 740 b 410 486 388 650 419 578 b 436 824 410 486 529 733 z "},"*":{"ha":831,"x_min":0,"x_max":0,"o":"m 140 274 l 140 274 b 183 204 176 274 183 249 b 140 135 183 161 176 135 b 128 136 136 135 131 135 l 128 272 b 140 274 132 274 136 274 z m 351 224 l 296 224 l 296 271 l 361 271 l 361 306 l 256 306 l 256 104 l 361 104 l 361 138 l 296 138 l 296 190 l 351 190 z m 138 101 l 138 101 b 224 204 200 101 224 133 b 139 308 224 274 201 308 b 88 303 125 308 106 306 l 88 104 b 138 101 106 101 126 101 z m 397 306 l 397 306 b 388 104 393 257 389 169 l 426 104 b 429 249 426 151 428 201 l 431 249 l 458 135 l 496 135 l 524 249 b 528 104 526 201 528 151 l 568 104 b 560 306 565 169 563 257 l 504 306 l 478 194 l 451 306 z m 669 101 l 669 101 b 744 204 725 101 744 133 b 669 308 744 275 725 308 b 596 204 614 308 596 275 b 669 101 596 133 614 101 z m 669 274 b 704 204 699 274 704 250 b 669 135 704 160 699 135 b 636 204 642 135 636 160 b 669 274 636 250 642 274 z m 656 689 l 656 689 b 439 429 540 689 439 429 b 669 529 497 486 569 518 b 742 601 699 533 742 558 b 656 689 742 631 728 689 z m 193 617 l 193 617 b 107 529 136 617 107 574 b 193 457 107 486 150 457 b 410 357 281 457 353 429 b 193 617 410 357 324 617 z m 436 824 l 436 824 b 313 822 394 864 343 853 b 325 710 283 790 294 740 b 410 486 388 650 419 578 b 436 824 410 486 529 733 z "},"+":{"ha":831,"x_min":0,"x_max":0,"o":"m 140 274 l 140 274 b 183 204 176 274 183 249 b 140 135 183 161 176 135 b 128 136 136 135 131 135 l 128 272 b 140 274 132 274 136 274 z m 351 224 l 296 224 l 296 271 l 361 271 l 361 306 l 256 306 l 256 104 l 361 104 l 361 138 l 296 138 l 296 190 l 351 190 z m 138 101 l 138 101 b 224 204 200 101 224 133 b 139 308 224 274 201 308 b 88 303 125 308 106 306 l 88 104 b 138 101 106 101 126 101 z m 397 306 l 397 306 b 388 104 393 257 389 169 l 426 104 b 429 249 426 151 428 201 l 431 249 l 458 135 l 496 135 l 524 249 b 528 104 526 201 528 151 l 568 104 b 560 306 565 169 563 257 l 504 306 l 478 194 l 451 306 z m 669 101 l 669 101 b 744 204 725 101 744 133 b 669 308 744 275 725 308 b 596 204 614 308 596 275 b 669 101 596 133 614 101 z m 669 274 b 704 204 699 274 704 250 b 669 135 704 160 699 135 b 636 204 642 135 636 160 b 669 274 636 250 642 274 z m 656 689 l 656 689 b 439 429 540 689 439 429 b 669 529 497 486 569 518 b 742 601 699 533 742 558 b 656 689 742 631 728 689 z m 193 617 l 193 617 b 107 529 136 617 107 574 b 193 457 107 486 150 457 b 410 357 281 457 353 429 b 193 617 410 357 324 617 z m 436 824 l 436 824 b 313 822 394 864 343 853 b 325 710 283 790 294 740 b 410 486 388 650 419 578 b 436 824 410 486 529 733 z "},",":{"ha":433,"x_min":0,"x_max":0,"o":"m 208 -226 l 321 -19 b 378 142 349 32 378 79 b 218 301 378 235 303 301 b 56 146 131 301 56 235 b 151 1 56 78 94 28 l 92 -185 z "},"-":{"ha":831,"x_min":0,"x_max":0,"o":"m 140 274 l 140 274 b 183 204 176 274 183 249 b 140 135 183 161 176 135 b 128 136 136 135 131 135 l 128 272 b 140 274 132 274 136 274 z m 351 224 l 296 224 l 296 271 l 361 271 l 361 306 l 256 306 l 256 104 l 361 104 l 361 138 l 296 138 l 296 190 l 351 190 z m 138 101 l 138 101 b 224 204 200 101 224 133 b 139 308 224 274 201 308 b 88 303 125 308 106 306 l 88 104 b 138 101 106 101 126 101 z m 397 306 l 397 306 b 388 104 393 257 389 169 l 426 104 b 429 249 426 151 428 201 l 431 249 l 458 135 l 496 135 l 524 249 b 528 104 526 201 528 151 l 568 104 b 560 306 565 169 563 257 l 504 306 l 478 194 l 451 306 z m 669 101 l 669 101 b 744 204 725 101 744 133 b 669 308 744 275 725 308 b 596 204 614 308 596 275 b 669 101 596 133 614 101 z m 669 274 b 704 204 699 274 704 250 b 669 135 704 160 699 135 b 636 204 642 135 636 160 b 669 274 636 250 642 274 z m 656 689 l 656 689 b 439 429 540 689 439 429 b 669 529 497 486 569 518 b 742 601 699 533 742 558 b 656 689 742 631 728 689 z m 193 617 l 193 617 b 107 529 136 617 107 574 b 193 457 107 486 150 457 b 410 357 281 457 353 429 b 193 617 410 357 324 617 z m 436 824 l 436 824 b 313 822 394 864 343 853 b 325 710 283 790 294 740 b 410 486 388 650 419 578 b 436 824 410 486 529 733 z "},".":{"ha":433,"x_min":0,"x_max":0,"o":"m 218 -21 b 378 142 304 -21 378 46 b 218 303 378 235 304 303 b 56 142 129 303 56 235 b 218 -21 56 46 129 -21 z "},"/":{"ha":831,"x_min":0,"x_max":0,"o":"m 140 274 l 140 274 b 183 204 176 274 183 249 b 140 135 183 161 176 135 b 128 136 136 135 131 135 l 128 272 b 140 274 132 274 136 274 z m 351 224 l 296 224 l 296 271 l 361 271 l 361 306 l 256 306 l 256 104 l 361 104 l 361 138 l 296 138 l 296 190 l 351 190 z m 138 101 l 138 101 b 224 204 200 101 224 133 b 139 308 224 274 201 308 b 88 303 125 308 106 306 l 88 104 b 138 101 106 101 126 101 z m 397 306 l 397 306 b 388 104 393 257 389 169 l 426 104 b 429 249 426 151 428 201 l 431 249 l 458 135 l 496 135 l 524 249 b 528 104 526 201 528 151 l 568 104 b 560 306 565 169 563 257 l 504 306 l 478 194 l 451 306 z m 669 101 l 669 101 b 744 204 725 101 744 133 b 669 308 744 275 725 308 b 596 204 614 308 596 275 b 669 101 596 133 614 101 z m 669 274 b 704 204 699 274 704 250 b 669 135 704 160 699 135 b 636 204 642 135 636 160 b 669 274 636 250 642 274 z m 656 689 l 656 689 b 439 429 540 689 439 429 b 669 529 497 486 569 518 b 742 601 699 533 742 558 b 656 689 742 631 728 689 z m 193 617 l 193 617 b 107 529 136 617 107 574 b 193 457 107 486 150 457 b 410 357 281 457 353 429 b 193 617 410 357 324 617 z m 436 824 l 436 824 b 313 822 394 864 343 853 b 325 710 283 790 294 740 b 410 486 388 650 419 578 b 436 824 410 486 529 733 z "},":":{"ha":360,"x_min":0,"x_max":0,"o":"m 222 418 b 382 581 308 418 382 486 b 222 742 382 675 308 742 b 60 581 133 742 60 675 b 222 418 60 486 133 418 z m 222 -21 b 382 142 308 -21 382 46 b 222 303 382 235 308 303 b 60 142 133 303 60 235 b 222 -21 60 46 133 -21 z "},";":{"ha":360,"x_min":0,"x_max":0,"o":"m 222 418 b 382 581 308 418 382 486 b 222 742 382 675 308 742 b 60 581 133 742 60 675 b 222 418 60 486 133 418 z m 213 -226 l 325 -19 b 382 142 353 32 382 79 b 222 301 382 235 307 301 b 60 146 135 301 60 235 b 156 1 60 78 99 28 l 96 -185 z "},"<":{"ha":831,"x_min":0,"x_max":0,"o":"m 140 274 l 140 274 b 183 204 176 274 183 249 b 140 135 183 161 176 135 b 128 136 136 135 131 135 l 128 272 b 140 274 132 274 136 274 z m 351 224 l 296 224 l 296 271 l 361 271 l 361 306 l 256 306 l 256 104 l 361 104 l 361 138 l 296 138 l 296 190 l 351 190 z m 138 101 l 138 101 b 224 204 200 101 224 133 b 139 308 224 274 201 308 b 88 303 125 308 106 306 l 88 104 b 138 101 106 101 126 101 z m 397 306 l 397 306 b 388 104 393 257 389 169 l 426 104 b 429 249 426 151 428 201 l 431 249 l 458 135 l 496 135 l 524 249 b 528 104 526 201 528 151 l 568 104 b 560 306 565 169 563 257 l 504 306 l 478 194 l 451 306 z m 669 101 l 669 101 b 744 204 725 101 744 133 b 669 308 744 275 725 308 b 596 204 614 308 596 275 b 669 101 596 133 614 101 z m 669 274 b 704 204 699 274 704 250 b 669 135 704 160 699 135 b 636 204 642 135 636 160 b 669 274 636 250 642 274 z m 656 689 l 656 689 b 439 429 540 689 439 429 b 669 529 497 486 569 518 b 742 601 699 533 742 558 b 656 689 742 631 728 689 z m 193 617 l 193 617 b 107 529 136 617 107 574 b 193 457 107 486 150 457 b 410 357 281 457 353 429 b 193 617 410 357 324 617 z m 436 824 l 436 824 b 313 822 394 864 343 853 b 325 710 283 790 294 740 b 410 486 388 650 419 578 b 436 824 410 486 529 733 z "},"=":{"ha":831,"x_min":0,"x_max":0,"o":"m 140 274 l 140 274 b 183 204 176 274 183 249 b 140 135 183 161 176 135 b 128 136 136 135 131 135 l 128 272 b 140 274 132 274 136 274 z m 351 224 l 296 224 l 296 271 l 361 271 l 361 306 l 256 306 l 256 104 l 361 104 l 361 138 l 296 138 l 296 190 l 351 190 z m 138 101 l 138 101 b 224 204 200 101 224 133 b 139 308 224 274 201 308 b 88 303 125 308 106 306 l 88 104 b 138 101 106 101 126 101 z m 397 306 l 397 306 b 388 104 393 257 389 169 l 426 104 b 429 249 426 151 428 201 l 431 249 l 458 135 l 496 135 l 524 249 b 528 104 526 201 528 151 l 568 104 b 560 306 565 169 563 257 l 504 306 l 478 194 l 451 306 z m 669 101 l 669 101 b 744 204 725 101 744 133 b 669 308 744 275 725 308 b 596 204 614 308 596 275 b 669 101 596 133 614 101 z m 669 274 b 704 204 699 274 704 250 b 669 135 704 160 699 135 b 636 204 642 135 636 160 b 669 274 636 250 642 274 z m 656 689 l 656 689 b 439 429 540 689 439 429 b 669 529 497 486 569 518 b 742 601 699 533 742 558 b 656 689 742 631 728 689 z m 193 617 l 193 617 b 107 529 136 617 107 574 b 193 457 107 486 150 457 b 410 357 281 457 353 429 b 193 617 410 357 324 617 z m 436 824 l 436 824 b 313 822 394 864 343 853 b 325 710 283 790 294 740 b 410 486 388 650 419 578 b 436 824 410 486 529 733 z "},">":{"ha":831,"x_min":0,"x_max":0,"o":"m 140 274 l 140 274 b 183 204 176 274 183 249 b 140 135 183 161 176 135 b 128 136 136 135 131 135 l 128 272 b 140 274 132 274 136 274 z m 351 224 l 296 224 l 296 271 l 361 271 l 361 306 l 256 306 l 256 104 l 361 104 l 361 138 l 296 138 l 296 190 l 351 190 z m 138 101 l 138 101 b 224 204 200 101 224 133 b 139 308 224 274 201 308 b 88 303 125 308 106 306 l 88 104 b 138 101 106 101 126 101 z m 397 306 l 397 306 b 388 104 393 257 389 169 l 426 104 b 429 249 426 151 428 201 l 431 249 l 458 135 l 496 135 l 524 249 b 528 104 526 201 528 151 l 568 104 b 560 306 565 169 563 257 l 504 306 l 478 194 l 451 306 z m 669 101 l 669 101 b 744 204 725 101 744 133 b 669 308 744 275 725 308 b 596 204 614 308 596 275 b 669 101 596 133 614 101 z m 669 274 b 704 204 699 274 704 250 b 669 135 704 160 699 135 b 636 204 642 135 636 160 b 669 274 636 250 642 274 z m 656 689 l 656 689 b 439 429 540 689 439 429 b 669 529 497 486 569 518 b 742 601 699 533 742 558 b 656 689 742 631 728 689 z m 193 617 l 193 617 b 107 529 136 617 107 574 b 193 457 107 486 150 457 b 410 357 281 457 353 429 b 193 617 410 357 324 617 z m 436 824 l 436 824 b 313 822 394 864 343 853 b 325 710 283 790 294 740 b 410 486 388 650 419 578 b 436 824 410 486 529 733 z "},"?":{"ha":778,"x_min":0,"x_max":0,"o":"m 188 344 l 478 344 l 478 413 b 747 700 661 413 747 546 b 358 993 747 882 640 993 b 74 939 294 993 124 976 l 106 668 b 300 704 143 694 243 704 b 414 646 372 704 414 683 b 313 578 414 590 374 578 l 188 578 z m 335 -21 b 536 140 458 -21 536 39 b 335 303 536 244 458 303 b 131 140 208 303 131 244 b 335 -21 131 39 208 -21 z "},"@":{"ha":831,"x_min":0,"x_max":0,"o":"m 140 274 l 140 274 b 183 204 176 274 183 249 b 140 135 183 161 176 135 b 128 136 136 135 131 135 l 128 272 b 140 274 132 274 136 274 z m 351 224 l 296 224 l 296 271 l 361 271 l 361 306 l 256 306 l 256 104 l 361 104 l 361 138 l 296 138 l 296 190 l 351 190 z m 138 101 l 138 101 b 224 204 200 101 224 133 b 139 308 224 274 201 308 b 88 303 125 308 106 306 l 88 104 b 138 101 106 101 126 101 z m 397 306 l 397 306 b 388 104 393 257 389 169 l 426 104 b 429 249 426 151 428 201 l 431 249 l 458 135 l 496 135 l 524 249 b 528 104 526 201 528 151 l 568 104 b 560 306 565 169 563 257 l 504 306 l 478 194 l 451 306 z m 669 101 l 669 101 b 744 204 725 101 744 133 b 669 308 744 275 725 308 b 596 204 614 308 596 275 b 669 101 596 133 614 101 z m 669 274 b 704 204 699 274 704 250 b 669 135 704 160 699 135 b 636 204 642 135 636 160 b 669 274 636 250 642 274 z m 656 689 l 656 689 b 439 429 540 689 439 429 b 669 529 497 486 569 518 b 742 601 699 533 742 558 b 656 689 742 631 728 689 z m 193 617 l 193 617 b 107 529 136 617 107 574 b 193 457 107 486 150 457 b 410 357 281 457 353 429 b 193 617 410 357 324 617 z m 436 824 l 436 824 b 313 822 394 864 343 853 b 325 710 283 790 294 740 b 410 486 388 650 419 578 b 436 824 410 486 529 733 z "},"A":{"ha":1310,"x_min":0,"x_max":0,"o":"m -26 0 l 529 0 l 565 72 l 744 72 l 781 0 l 1336 0 l 683 1007 l 626 1007 z m 604 149 l 650 239 l 661 239 l 706 149 z "},"B":{"ha":1147,"x_min":0,"x_max":0,"o":"m 804 -21 b 1133 264 988 -21 1133 90 b 793 519 1133 421 1015 519 l 793 536 b 1082 757 972 536 1082 619 b 813 972 1082 892 971 972 l 28 972 l 28 0 l 46 0 b 297 44 115 29 182 44 b 804 -21 478 44 565 -21 z m 514 574 l 514 663 l 563 663 b 617 618 597 663 617 644 b 564 574 617 593 597 574 z m 581 378 b 514 400 549 378 532 393 l 514 482 l 581 482 b 643 431 619 482 643 461 b 581 378 643 400 619 378 z "},"C":{"ha":1088,"x_min":0,"x_max":0,"o":"m 642 -21 b 1072 89 797 -21 976 28 l 1074 603 b 629 421 974 513 740 421 b 513 496 553 421 513 453 b 597 564 513 536 551 564 b 697 483 653 564 686 531 l 1050 764 b 571 993 985 886 800 993 b 11 490 260 993 11 771 b 642 -21 11 193 243 -21 z "},"D":{"ha":1133,"x_min":0,"x_max":0,"o":"m 654 -21 b 1122 476 986 -21 1122 201 b 549 972 1122 750 865 972 l 28 972 l 28 0 l 47 0 b 276 44 107 25 154 44 b 654 -21 410 44 478 -21 z m 582 432 b 514 444 556 432 539 439 l 514 543 l 581 543 b 644 488 621 543 644 521 b 582 432 644 456 621 432 z "},"E":{"ha":990,"x_min":0,"x_max":0,"o":"m 28 0 l 965 0 l 965 389 l 514 389 l 514 432 l 919 432 l 919 540 l 514 540 l 514 585 l 860 585 l 860 972 l 28 972 z "},"F":{"ha":925,"x_min":0,"x_max":0,"o":"m 28 0 l 514 0 l 514 453 l 788 453 l 788 561 l 514 561 l 514 599 l 903 599 l 903 972 l 28 972 z "},"G":{"ha":1174,"x_min":0,"x_max":0,"o":"m 600 -21 b 931 56 706 -21 856 22 l 936 56 l 1074 0 l 1092 0 l 1092 446 l 1168 446 l 1168 508 l 608 508 l 608 444 l 660 444 l 660 413 b 629 411 650 411 640 411 b 513 486 553 411 513 440 b 647 567 513 533 565 567 b 826 518 728 567 793 546 l 908 917 b 571 993 826 964 697 993 b 11 490 260 993 11 771 b 600 -21 11 193 231 -21 z "},"H":{"ha":1092,"x_min":0,"x_max":0,"o":"m 28 0 l 514 0 l 514 432 l 576 432 l 576 0 l 1064 0 l 1064 972 l 576 972 l 576 540 l 514 540 l 514 972 l 28 972 z "},"I":{"ha":543,"x_min":0,"x_max":0,"o":"m 28 0 l 515 0 l 515 972 l 28 972 z "},"J":{"ha":867,"x_min":0,"x_max":0,"o":"m 369 -21 b 839 393 650 -21 839 165 l 839 972 l 28 972 l 28 614 l 353 614 l 353 526 b 183 439 353 472 256 439 b 15 483 122 439 69 453 l 14 42 b 369 -21 132 -4 254 -21 z "},"K":{"ha":1196,"x_min":0,"x_max":0,"o":"m 28 0 l 514 0 l 514 383 l 546 464 b 560 474 549 469 553 474 b 589 390 579 474 585 449 l 599 244 b 676 0 604 157 642 28 l 1221 0 b 1121 254 1174 61 1140 168 l 1065 497 b 878 658 1039 614 969 658 b 714 603 821 658 768 651 l 704 594 l 693 608 l 697 613 b 876 699 740 661 806 699 b 1026 651 935 699 999 675 l 1054 969 b 907 993 1003 985 935 993 b 556 714 763 993 604 944 l 531 596 l 514 596 l 514 972 l 28 972 z "},"L":{"ha":975,"x_min":0,"x_max":0,"o":"m 678 -21 b 960 29 772 -21 893 -3 l 960 460 b 732 411 904 429 800 411 b 521 428 669 411 563 428 b 496 531 518 483 496 492 b 583 618 496 583 536 618 b 696 572 624 618 663 600 l 697 932 b 438 993 642 961 515 993 b 11 621 157 993 11 850 b 74 214 11 436 74 333 b 17 13 74 139 54 78 l 28 0 b 269 44 88 25 147 44 b 678 -21 403 44 529 -21 z "},"M":{"ha":1346,"x_min":0,"x_max":0,"o":"m 14 0 l 546 0 l 592 335 l 603 335 l 656 182 l 690 182 l 744 335 l 754 335 l 800 0 l 1332 0 l 1074 993 l 1031 993 l 679 646 l 667 646 l 317 993 l 274 993 z "},"N":{"ha":1092,"x_min":0,"x_max":0,"o":"m 1024 -35 l 1064 -35 l 1064 972 l 606 972 l 606 717 l 597 713 l 68 1007 l 28 1007 l 28 0 l 488 0 l 488 251 l 494 257 z "},"O":{"ha":1160,"x_min":0,"x_max":0,"o":"m 581 -21 b 1149 486 914 -21 1149 199 b 581 993 1149 774 914 993 b 11 486 246 993 11 774 b 581 -21 11 199 246 -21 z m 581 411 b 513 486 540 411 513 440 b 581 563 513 533 540 563 b 647 486 619 563 647 533 b 581 411 647 440 619 411 z "},"P":{"ha":1132,"x_min":0,"x_max":0,"o":"m 28 0 l 515 0 l 515 326 l 522 331 b 774 256 593 286 681 256 b 1113 624 968 256 1113 426 b 724 972 1113 822 951 972 l 28 972 z m 567 447 b 515 456 556 447 538 449 l 515 554 l 567 554 b 617 500 596 554 617 533 b 567 447 617 468 596 447 z "},"Q":{"ha":1160,"x_min":0,"x_max":0,"o":"m 1029 -221 l 1029 39 b 625 -43 907 -22 768 -60 l 625 -33 b 1149 486 935 -15 1149 211 b 581 993 1149 774 914 993 b 11 472 246 993 11 781 b 1029 -221 11 -14 472 -272 z m 581 410 b 513 486 540 410 513 439 b 581 561 513 533 540 561 b 647 486 619 561 647 533 b 581 410 647 439 619 410 z "},"R":{"ha":1150,"x_min":0,"x_max":0,"o":"m 978 -21 b 1139 6 1006 -21 1086 -11 l 1085 501 b 854 404 1044 446 944 404 b 658 438 789 404 724 413 l 664 451 b 772 440 699 444 735 440 b 1111 718 1001 440 1111 565 b 722 972 1111 863 951 972 l 28 972 l 28 0 l 514 0 l 514 378 l 524 378 l 560 229 b 978 -21 624 11 768 -21 z m 615 493 b 514 522 596 493 565 499 l 514 588 l 615 588 b 667 540 646 588 667 569 b 615 493 667 511 646 493 z "},"S":{"ha":1144,"x_min":0,"x_max":0,"o":"m 561 -21 b 1119 306 874 -21 1119 82 b 721 567 1119 504 890 567 b 444 569 572 567 444 531 b 690 617 444 604 571 617 b 1022 539 825 617 956 586 l 1022 929 b 593 993 925 961 747 993 b 42 679 282 993 42 896 b 476 411 42 483 299 411 b 711 417 622 411 711 458 b 494 363 711 383 621 363 b 25 526 294 363 138 419 l 25 58 b 561 -21 165 18 404 -21 z "},"T":{"ha":949,"x_min":0,"x_max":0,"o":"m 644 -21 b 904 42 724 -21 849 11 l 903 483 b 776 439 871 456 817 439 b 676 526 717 439 672 469 l 683 599 l 935 599 l 935 972 l 14 972 l 14 599 l 204 599 l 190 394 b 644 -21 172 128 368 -21 z "},"U":{"ha":1185,"x_min":0,"x_max":0,"o":"m 592 -21 b 1163 446 924 -21 1189 115 l 1119 972 l 631 972 l 658 479 b 592 410 661 432 631 410 b 526 479 554 410 524 432 l 554 972 l 64 972 l 22 446 b 592 -21 -4 115 261 -21 z "},"V":{"ha":1310,"x_min":0,"x_max":0,"o":"m 626 -35 l 683 -35 l 1336 972 l 781 972 l 660 735 l 650 735 l 529 972 l -26 972 z "},"W":{"ha":1701,"x_min":0,"x_max":0,"o":"m 517 -35 l 574 -35 l 846 397 l 856 397 l 1128 -35 l 1186 -35 l 1728 972 l 1171 972 l 1054 749 l 1043 749 l 869 1007 l 833 1007 l 658 749 l 647 749 l 531 972 l -25 972 z "},"X":{"ha":1122,"x_min":0,"x_max":0,"o":"m -18 0 l 468 0 l 557 151 l 568 151 l 657 0 l 1143 0 l 824 510 l 1125 972 l 653 972 l 568 832 l 557 832 l 472 972 l 0 972 l 301 510 z "},"Y":{"ha":1253,"x_min":0,"x_max":0,"o":"m 390 0 l 876 0 l 876 332 l 1281 972 l 725 972 l 632 786 l 622 786 l 529 972 l -26 972 l 390 315 z "},"Z":{"ha":1071,"x_min":0,"x_max":0,"o":"m 756 -21 b 1057 35 874 -21 974 -1 l 1057 518 b 824 464 988 483 910 464 b 763 465 810 464 783 464 l 758 474 l 1028 932 l 1028 972 l 35 972 l 35 486 l 268 486 l 274 478 l 14 40 l 14 1 b 313 53 136 46 172 53 b 756 -21 481 53 568 -21 z "},"[":{"ha":831,"x_min":0,"x_max":0,"o":"m 140 274 l 140 274 b 183 204 176 274 183 249 b 140 135 183 161 176 135 b 128 136 136 135 131 135 l 128 272 b 140 274 132 274 136 274 z m 351 224 l 296 224 l 296 271 l 361 271 l 361 306 l 256 306 l 256 104 l 361 104 l 361 138 l 296 138 l 296 190 l 351 190 z m 138 101 l 138 101 b 224 204 200 101 224 133 b 139 308 224 274 201 308 b 88 303 125 308 106 306 l 88 104 b 138 101 106 101 126 101 z m 397 306 l 397 306 b 388 104 393 257 389 169 l 426 104 b 429 249 426 151 428 201 l 431 249 l 458 135 l 496 135 l 524 249 b 528 104 526 201 528 151 l 568 104 b 560 306 565 169 563 257 l 504 306 l 478 194 l 451 306 z m 669 101 l 669 101 b 744 204 725 101 744 133 b 669 308 744 275 725 308 b 596 204 614 308 596 275 b 669 101 596 133 614 101 z m 669 274 b 704 204 699 274 704 250 b 669 135 704 160 699 135 b 636 204 642 135 636 160 b 669 274 636 250 642 274 z m 656 689 l 656 689 b 439 429 540 689 439 429 b 669 529 497 486 569 518 b 742 601 699 533 742 558 b 656 689 742 631 728 689 z m 193 617 l 193 617 b 107 529 136 617 107 574 b 193 457 107 486 150 457 b 410 357 281 457 353 429 b 193 617 410 357 324 617 z m 436 824 l 436 824 b 313 822 394 864 343 853 b 325 710 283 790 294 740 b 410 486 388 650 419 578 b 436 824 410 486 529 733 z "},"\\":{"ha":831,"x_min":0,"x_max":0,"o":"m 140 274 l 140 274 b 183 204 176 274 183 249 b 140 135 183 161 176 135 b 128 136 136 135 131 135 l 128 272 b 140 274 132 274 136 274 z m 351 224 l 296 224 l 296 271 l 361 271 l 361 306 l 256 306 l 256 104 l 361 104 l 361 138 l 296 138 l 296 190 l 351 190 z m 138 101 l 138 101 b 224 204 200 101 224 133 b 139 308 224 274 201 308 b 88 303 125 308 106 306 l 88 104 b 138 101 106 101 126 101 z m 397 306 l 397 306 b 388 104 393 257 389 169 l 426 104 b 429 249 426 151 428 201 l 431 249 l 458 135 l 496 135 l 524 249 b 528 104 526 201 528 151 l 568 104 b 560 306 565 169 563 257 l 504 306 l 478 194 l 451 306 z m 669 101 l 669 101 b 744 204 725 101 744 133 b 669 308 744 275 725 308 b 596 204 614 308 596 275 b 669 101 596 133 614 101 z m 669 274 b 704 204 699 274 704 250 b 669 135 704 160 699 135 b 636 204 642 135 636 160 b 669 274 636 250 642 274 z m 656 689 l 656 689 b 439 429 540 689 439 429 b 669 529 497 486 569 518 b 742 601 699 533 742 558 b 656 689 742 631 728 689 z m 193 617 l 193 617 b 107 529 136 617 107 574 b 193 457 107 486 150 457 b 410 357 281 457 353 429 b 193 617 410 357 324 617 z m 436 824 l 436 824 b 313 822 394 864 343 853 b 325 710 283 790 294 740 b 410 486 388 650 419 578 b 436 824 410 486 529 733 z "},"]":{"ha":831,"x_min":0,"x_max":0,"o":"m 140 274 l 140 274 b 183 204 176 274 183 249 b 140 135 183 161 176 135 b 128 136 136 135 131 135 l 128 272 b 140 274 132 274 136 274 z m 351 224 l 296 224 l 296 271 l 361 271 l 361 306 l 256 306 l 256 104 l 361 104 l 361 138 l 296 138 l 296 190 l 351 190 z m 138 101 l 138 101 b 224 204 200 101 224 133 b 139 308 224 274 201 308 b 88 303 125 308 106 306 l 88 104 b 138 101 106 101 126 101 z m 397 306 l 397 306 b 388 104 393 257 389 169 l 426 104 b 429 249 426 151 428 201 l 431 249 l 458 135 l 496 135 l 524 249 b 528 104 526 201 528 151 l 568 104 b 560 306 565 169 563 257 l 504 306 l 478 194 l 451 306 z m 669 101 l 669 101 b 744 204 725 101 744 133 b 669 308 744 275 725 308 b 596 204 614 308 596 275 b 669 101 596 133 614 101 z m 669 274 b 704 204 699 274 704 250 b 669 135 704 160 699 135 b 636 204 642 135 636 160 b 669 274 636 250 642 274 z m 656 689 l 656 689 b 439 429 540 689 439 429 b 669 529 497 486 569 518 b 742 601 699 533 742 558 b 656 689 742 631 728 689 z m 193 617 l 193 617 b 107 529 136 617 107 574 b 193 457 107 486 150 457 b 410 357 281 457 353 429 b 193 617 410 357 324 617 z m 436 824 l 436 824 b 313 822 394 864 343 853 b 325 710 283 790 294 740 b 410 486 388 650 419 578 b 436 824 410 486 529 733 z "},"^":{"ha":831,"x_min":0,"x_max":0,"o":"m 140 274 l 140 274 b 183 204 176 274 183 249 b 140 135 183 161 176 135 b 128 136 136 135 131 135 l 128 272 b 140 274 132 274 136 274 z m 351 224 l 296 224 l 296 271 l 361 271 l 361 306 l 256 306 l 256 104 l 361 104 l 361 138 l 296 138 l 296 190 l 351 190 z m 138 101 l 138 101 b 224 204 200 101 224 133 b 139 308 224 274 201 308 b 88 303 125 308 106 306 l 88 104 b 138 101 106 101 126 101 z m 397 306 l 397 306 b 388 104 393 257 389 169 l 426 104 b 429 249 426 151 428 201 l 431 249 l 458 135 l 496 135 l 524 249 b 528 104 526 201 528 151 l 568 104 b 560 306 565 169 563 257 l 504 306 l 478 194 l 451 306 z m 669 101 l 669 101 b 744 204 725 101 744 133 b 669 308 744 275 725 308 b 596 204 614 308 596 275 b 669 101 596 133 614 101 z m 669 274 b 704 204 699 274 704 250 b 669 135 704 160 699 135 b 636 204 642 135 636 160 b 669 274 636 250 642 274 z m 656 689 l 656 689 b 439 429 540 689 439 429 b 669 529 497 486 569 518 b 742 601 699 533 742 558 b 656 689 742 631 728 689 z m 193 617 l 193 617 b 107 529 136 617 107 574 b 193 457 107 486 150 457 b 410 357 281 457 353 429 b 193 617 410 357 324 617 z m 436 824 l 436 824 b 313 822 394 864 343 853 b 325 710 283 790 294 740 b 410 486 388 650 419 578 b 436 824 410 486 529 733 z "},"_":{"ha":831,"x_min":0,"x_max":0,"o":"m 140 274 l 140 274 b 183 204 176 274 183 249 b 140 135 183 161 176 135 b 128 136 136 135 131 135 l 128 272 b 140 274 132 274 136 274 z m 351 224 l 296 224 l 296 271 l 361 271 l 361 306 l 256 306 l 256 104 l 361 104 l 361 138 l 296 138 l 296 190 l 351 190 z m 138 101 l 138 101 b 224 204 200 101 224 133 b 139 308 224 274 201 308 b 88 303 125 308 106 306 l 88 104 b 138 101 106 101 126 101 z m 397 306 l 397 306 b 388 104 393 257 389 169 l 426 104 b 429 249 426 151 428 201 l 431 249 l 458 135 l 496 135 l 524 249 b 528 104 526 201 528 151 l 568 104 b 560 306 565 169 563 257 l 504 306 l 478 194 l 451 306 z m 669 101 l 669 101 b 744 204 725 101 744 133 b 669 308 744 275 725 308 b 596 204 614 308 596 275 b 669 101 596 133 614 101 z m 669 274 b 704 204 699 274 704 250 b 669 135 704 160 699 135 b 636 204 642 135 636 160 b 669 274 636 250 642 274 z m 656 689 l 656 689 b 439 429 540 689 439 429 b 669 529 497 486 569 518 b 742 601 699 533 742 558 b 656 689 742 631 728 689 z m 193 617 l 193 617 b 107 529 136 617 107 574 b 193 457 107 486 150 457 b 410 357 281 457 353 429 b 193 617 410 357 324 617 z m 436 824 l 436 824 b 313 822 394 864 343 853 b 325 710 283 790 294 740 b 410 486 388 650 419 578 b 436 824 410 486 529 733 z "},"`":{"ha":831,"x_min":0,"x_max":0,"o":"m 140 274 l 140 274 b 183 204 176 274 183 249 b 140 135 183 161 176 135 b 128 136 136 135 131 135 l 128 272 b 140 274 132 274 136 274 z m 351 224 l 296 224 l 296 271 l 361 271 l 361 306 l 256 306 l 256 104 l 361 104 l 361 138 l 296 138 l 296 190 l 351 190 z m 138 101 l 138 101 b 224 204 200 101 224 133 b 139 308 224 274 201 308 b 88 303 125 308 106 306 l 88 104 b 138 101 106 101 126 101 z m 397 306 l 397 306 b 388 104 393 257 389 169 l 426 104 b 429 249 426 151 428 201 l 431 249 l 458 135 l 496 135 l 524 249 b 528 104 526 201 528 151 l 568 104 b 560 306 565 169 563 257 l 504 306 l 478 194 l 451 306 z m 669 101 l 669 101 b 744 204 725 101 744 133 b 669 308 744 275 725 308 b 596 204 614 308 596 275 b 669 101 596 133 614 101 z m 669 274 b 704 204 699 274 704 250 b 669 135 704 160 699 135 b 636 204 642 135 636 160 b 669 274 636 250 642 274 z m 656 689 l 656 689 b 439 429 540 689 439 429 b 669 529 497 486 569 518 b 742 601 699 533 742 558 b 656 689 742 631 728 689 z m 193 617 l 193 617 b 107 529 136 617 107 574 b 193 457 107 486 150 457 b 410 357 281 457 353 429 b 193 617 410 357 324 617 z m 436 824 l 436 824 b 313 822 394 864 343 853 b 325 710 283 790 294 740 b 410 486 388 650 419 578 b 436 824 410 486 529 733 z "},"a":{"ha":985,"x_min":0,"x_max":0,"o":"m 301 -21 b 528 253 436 -21 514 108 l 542 253 b 499 0 542 164 529 81 l 957 0 l 957 743 l 919 743 l 617 626 l 613 626 b 349 764 554 711 463 764 b 11 371 147 764 11 586 b 301 -21 11 139 126 -21 z m 497 311 b 435 375 460 311 435 342 b 499 440 435 410 460 440 b 560 376 535 440 560 411 b 497 311 560 342 535 311 z "},"b":{"ha":1031,"x_min":0,"x_max":0,"o":"m 715 -21 b 1018 376 889 -21 1018 163 b 718 764 1018 592 890 764 b 450 561 599 764 501 682 l 440 561 l 440 944 l 28 944 l 28 0 l 485 0 b 442 190 458 64 444 118 l 450 190 b 715 -21 499 68 597 -21 z m 517 299 b 440 376 471 299 440 335 b 515 453 440 418 471 453 b 593 375 561 453 593 417 b 517 299 593 335 561 299 z "},"c":{"ha":808,"x_min":0,"x_max":0,"o":"m 496 -21 b 794 32 597 -21 733 6 l 794 386 b 551 324 743 353 643 324 b 431 379 475 324 431 344 b 538 438 431 414 463 438 b 718 382 594 438 671 414 l 783 692 b 481 764 713 742 571 764 b 11 375 175 764 11 590 b 496 -21 11 144 196 -21 z "},"d":{"ha":1031,"x_min":0,"x_max":0,"o":"m 314 -21 b 581 190 433 -21 531 68 l 589 190 b 546 0 585 118 572 64 l 1003 0 l 1003 944 l 589 944 l 589 561 l 579 561 b 313 764 529 682 431 764 b 11 376 139 764 11 592 b 314 -21 11 163 140 -21 z m 514 299 b 438 375 468 299 438 335 b 514 453 438 417 469 453 b 589 376 560 453 589 418 b 514 299 589 335 558 299 z "},"e":{"ha":897,"x_min":0,"x_max":0,"o":"m 492 -21 b 786 7 607 -21 715 -10 l 765 314 b 567 274 692 290 657 274 b 414 329 504 274 440 289 l 879 329 b 886 386 883 347 886 364 b 457 764 886 588 715 764 b 11 374 183 764 11 589 b 492 -21 11 194 135 -21 z m 401 396 b 454 463 406 439 422 463 b 507 396 490 463 507 436 z "},"f":{"ha":656,"x_min":0,"x_max":0,"o":"m 118 0 l 531 0 l 531 443 l 642 443 l 642 743 l 554 743 b 482 764 508 743 482 750 b 533 785 482 779 503 785 b 608 774 561 785 597 778 l 608 964 b 325 993 542 981 413 993 b 19 875 88 993 19 940 b 244 761 19 810 100 772 l 244 743 l 14 743 l 14 443 l 118 443 z "},"g":{"ha":936,"x_min":0,"x_max":0,"o":"m 478 -340 b 975 -243 696 -340 865 -300 l 872 65 b 457 -49 776 1 622 -49 b 297 -7 367 -49 297 -31 b 322 7 297 1 306 6 b 461 -10 364 -4 411 -10 b 897 363 736 -10 897 158 b 790 583 897 449 861 526 l 790 592 l 913 713 l 913 743 l 463 743 b 26 374 189 743 26 579 b 196 71 26 239 83 131 l 196 57 b -49 -111 39 46 -49 -12 b 478 -340 -49 -242 115 -340 z m 463 282 b 393 350 422 282 393 314 b 461 417 393 386 421 417 b 531 349 501 417 531 385 b 463 282 531 314 503 282 z "},"h":{"ha":985,"x_min":0,"x_max":0,"o":"m 28 0 l 442 0 l 442 363 b 494 426 442 400 460 426 b 550 361 531 426 550 399 l 550 0 l 963 0 l 963 461 b 697 764 963 656 851 764 b 451 572 588 764 490 701 l 442 572 l 442 944 l 28 944 z "},"i":{"ha":479,"x_min":0,"x_max":0,"o":"m 240 768 b 468 901 392 768 468 814 b 240 1035 468 990 392 1035 b 11 901 88 1035 11 990 b 240 768 11 814 88 768 z m 39 0 l 451 0 l 451 743 l 39 743 z "},"j":{"ha":468,"x_min":0,"x_max":0,"o":"m 229 768 b 457 901 381 768 457 814 b 229 1035 457 990 381 1035 b 0 901 76 1035 0 990 b 229 768 0 814 76 768 z m 43 -340 b 440 40 286 -340 440 -194 l 440 743 l 28 743 l 28 58 b -112 -56 28 -10 -31 -56 b -251 -26 -162 -56 -207 -46 l -253 -301 b 43 -340 -154 -331 -54 -340 z "},"k":{"ha":1060,"x_min":0,"x_max":0,"o":"m 28 0 l 442 0 l 442 272 l 468 313 b 479 318 469 315 474 318 b 499 281 490 318 494 307 l 515 179 b 579 0 528 106 553 43 l 1053 0 b 983 185 1021 60 999 121 l 956 304 b 728 472 931 414 901 472 b 549 417 668 472 601 450 l 542 424 l 543 426 b 742 508 576 476 647 508 b 908 469 804 508 879 489 l 938 756 b 782 778 882 769 811 778 b 457 563 619 778 526 749 l 451 546 l 442 546 l 442 944 l 28 944 z "},"l":{"ha":469,"x_min":0,"x_max":0,"o":"m 28 0 l 442 0 l 442 944 l 28 944 z "},"m":{"ha":1446,"x_min":0,"x_max":0,"o":"m 28 0 l 422 0 l 422 363 b 475 426 422 400 440 426 b 531 361 511 426 531 399 l 531 0 l 922 0 l 922 363 b 976 426 922 400 940 426 b 1031 361 1013 426 1031 399 l 1031 0 l 1424 0 l 1424 461 b 1125 764 1424 644 1307 764 b 865 640 1022 764 929 729 l 857 640 b 597 764 803 728 718 764 b 326 638 486 764 383 726 l 322 638 l 65 743 l 28 743 z "},"n":{"ha":986,"x_min":0,"x_max":0,"o":"m 28 0 l 443 0 l 443 363 b 496 426 443 400 461 426 b 551 361 532 426 551 399 l 551 0 l 964 0 l 964 475 b 629 764 964 658 813 764 b 349 636 517 764 410 726 l 344 636 l 65 743 l 28 743 z "},"o":{"ha":963,"x_min":0,"x_max":0,"o":"m 482 -21 b 951 371 776 -21 951 151 b 482 764 951 592 776 764 b 11 371 188 764 11 592 b 482 -21 11 151 188 -21 z m 482 313 b 425 371 449 313 425 335 b 482 429 425 407 449 429 b 538 371 515 429 538 407 b 482 313 538 335 515 313 z "},"p":{"ha":985,"x_min":0,"x_max":0,"o":"m 28 -321 l 443 -321 l 443 253 l 457 253 b 685 -21 472 108 549 -21 b 974 371 858 -21 974 139 b 636 764 974 586 838 764 b 371 626 522 764 429 711 l 367 626 l 67 743 l 28 743 z m 488 311 b 425 376 450 311 425 342 b 488 440 425 411 450 440 b 551 375 525 440 551 410 b 488 311 551 342 525 311 z "},"q":{"ha":985,"x_min":0,"x_max":0,"o":"m 542 -321 l 957 -321 l 957 743 l 918 743 l 617 626 l 613 626 b 349 764 554 711 461 764 b 11 371 147 764 11 586 b 300 -21 11 139 126 -21 b 528 253 436 -21 513 108 l 542 253 z m 497 311 b 433 375 460 311 433 342 b 497 440 433 410 460 440 b 560 376 535 440 560 411 b 497 311 560 342 535 311 z "},"r":{"ha":814,"x_min":0,"x_max":0,"o":"m 28 0 l 443 0 l 443 279 b 636 426 443 365 526 426 b 800 367 738 426 800 367 l 800 725 b 629 764 750 750 692 764 b 358 632 524 764 421 721 l 354 632 l 65 743 l 28 743 z "},"s":{"ha":928,"x_min":0,"x_max":0,"o":"m 456 -21 b 911 232 750 -21 911 68 b 643 425 911 382 768 415 b 463 449 547 433 463 426 b 590 474 463 467 513 474 b 871 410 672 474 800 447 l 874 704 b 454 764 768 740 628 764 b 25 536 167 764 25 669 b 300 333 25 372 174 342 b 474 307 393 328 474 333 b 344 279 474 289 436 279 b 29 375 244 279 129 308 l 29 38 b 456 -21 128 8 346 -21 z "},"t":{"ha":818,"x_min":0,"x_max":0,"o":"m 494 -21 b 790 18 590 -21 692 -11 l 789 358 b 650 329 743 339 700 329 b 510 411 567 329 510 350 l 510 428 l 776 428 l 776 743 l 510 743 l 510 944 l 472 944 l 14 657 l 14 428 l 97 428 l 97 304 b 494 -21 97 78 288 -21 z "},"u":{"ha":985,"x_min":0,"x_max":0,"o":"m 288 -21 b 533 158 397 -21 496 29 l 544 158 b 511 0 539 99 529 54 l 957 0 l 957 743 l 544 743 l 544 382 b 490 318 544 344 526 318 b 436 383 454 318 436 346 l 436 743 l 22 743 l 22 269 b 288 -21 22 75 135 -21 z "},"v":{"ha":1099,"x_min":0,"x_max":0,"o":"m 526 -35 l 572 -35 l 1104 743 l 651 743 l 554 592 l 544 592 l 447 743 l -6 743 z "},"w":{"ha":1417,"x_min":0,"x_max":0,"o":"m 435 -35 l 482 -35 l 703 303 l 713 303 l 933 -35 l 981 -35 l 1422 743 l 969 743 l 874 574 l 865 574 l 722 778 l 693 778 l 551 574 l 542 574 l 447 743 l -6 743 z "},"x":{"ha":1017,"x_min":0,"x_max":0,"o":"m -4 0 l 425 0 l 503 114 l 513 114 l 592 0 l 1021 0 l 739 389 l 1004 743 l 588 743 l 513 638 l 503 638 l 428 743 l 11 743 l 278 389 z "},"y":{"ha":985,"x_min":0,"x_max":0,"o":"m 449 -340 b 957 81 804 -340 957 -154 l 957 743 l 544 743 l 544 392 b 490 328 544 354 526 328 b 436 393 454 328 436 356 l 436 743 l 22 743 l 22 307 b 288 3 22 113 135 3 b 533 196 397 3 496 67 l 544 196 l 544 175 b 293 -31 544 57 450 -31 b 71 10 217 -31 128 -12 l 56 -289 b 449 -340 151 -318 349 -340 z "},"z":{"ha":974,"x_min":0,"x_max":0,"o":"m 11 0 l 963 0 l 963 308 l 664 308 l 658 317 l 946 696 l 946 743 l 44 743 l 44 435 l 303 435 l 308 425 l 11 46 z "},"{":{"ha":831,"x_min":0,"x_max":0,"o":"m 140 274 l 140 274 b 183 204 176 274 183 249 b 140 135 183 161 176 135 b 128 136 136 135 131 135 l 128 272 b 140 274 132 274 136 274 z m 351 224 l 296 224 l 296 271 l 361 271 l 361 306 l 256 306 l 256 104 l 361 104 l 361 138 l 296 138 l 296 190 l 351 190 z m 138 101 l 138 101 b 224 204 200 101 224 133 b 139 308 224 274 201 308 b 88 303 125 308 106 306 l 88 104 b 138 101 106 101 126 101 z m 397 306 l 397 306 b 388 104 393 257 389 169 l 426 104 b 429 249 426 151 428 201 l 431 249 l 458 135 l 496 135 l 524 249 b 528 104 526 201 528 151 l 568 104 b 560 306 565 169 563 257 l 504 306 l 478 194 l 451 306 z m 669 101 l 669 101 b 744 204 725 101 744 133 b 669 308 744 275 725 308 b 596 204 614 308 596 275 b 669 101 596 133 614 101 z m 669 274 b 704 204 699 274 704 250 b 669 135 704 160 699 135 b 636 204 642 135 636 160 b 669 274 636 250 642 274 z m 656 689 l 656 689 b 439 429 540 689 439 429 b 669 529 497 486 569 518 b 742 601 699 533 742 558 b 656 689 742 631 728 689 z m 193 617 l 193 617 b 107 529 136 617 107 574 b 193 457 107 486 150 457 b 410 357 281 457 353 429 b 193 617 410 357 324 617 z m 436 824 l 436 824 b 313 822 394 864 343 853 b 325 710 283 790 294 740 b 410 486 388 650 419 578 b 436 824 410 486 529 733 z "},"|":{"ha":831,"x_min":0,"x_max":0,"o":"m 140 274 l 140 274 b 183 204 176 274 183 249 b 140 135 183 161 176 135 b 128 136 136 135 131 135 l 128 272 b 140 274 132 274 136 274 z m 351 224 l 296 224 l 296 271 l 361 271 l 361 306 l 256 306 l 256 104 l 361 104 l 361 138 l 296 138 l 296 190 l 351 190 z m 138 101 l 138 101 b 224 204 200 101 224 133 b 139 308 224 274 201 308 b 88 303 125 308 106 306 l 88 104 b 138 101 106 101 126 101 z m 397 306 l 397 306 b 388 104 393 257 389 169 l 426 104 b 429 249 426 151 428 201 l 431 249 l 458 135 l 496 135 l 524 249 b 528 104 526 201 528 151 l 568 104 b 560 306 565 169 563 257 l 504 306 l 478 194 l 451 306 z m 669 101 l 669 101 b 744 204 725 101 744 133 b 669 308 744 275 725 308 b 596 204 614 308 596 275 b 669 101 596 133 614 101 z m 669 274 b 704 204 699 274 704 250 b 669 135 704 160 699 135 b 636 204 642 135 636 160 b 669 274 636 250 642 274 z m 656 689 l 656 689 b 439 429 540 689 439 429 b 669 529 497 486 569 518 b 742 601 699 533 742 558 b 656 689 742 631 728 689 z m 193 617 l 193 617 b 107 529 136 617 107 574 b 193 457 107 486 150 457 b 410 357 281 457 353 429 b 193 617 410 357 324 617 z m 436 824 l 436 824 b 313 822 394 864 343 853 b 325 710 283 790 294 740 b 410 486 388 650 419 578 b 436 824 410 486 529 733 z "},"}":{"ha":831,"x_min":0,"x_max":0,"o":"m 140 274 l 140 274 b 183 204 176 274 183 249 b 140 135 183 161 176 135 b 128 136 136 135 131 135 l 128 272 b 140 274 132 274 136 274 z m 351 224 l 296 224 l 296 271 l 361 271 l 361 306 l 256 306 l 256 104 l 361 104 l 361 138 l 296 138 l 296 190 l 351 190 z m 138 101 l 138 101 b 224 204 200 101 224 133 b 139 308 224 274 201 308 b 88 303 125 308 106 306 l 88 104 b 138 101 106 101 126 101 z m 397 306 l 397 306 b 388 104 393 257 389 169 l 426 104 b 429 249 426 151 428 201 l 431 249 l 458 135 l 496 135 l 524 249 b 528 104 526 201 528 151 l 568 104 b 560 306 565 169 563 257 l 504 306 l 478 194 l 451 306 z m 669 101 l 669 101 b 744 204 725 101 744 133 b 669 308 744 275 725 308 b 596 204 614 308 596 275 b 669 101 596 133 614 101 z m 669 274 b 704 204 699 274 704 250 b 669 135 704 160 699 135 b 636 204 642 135 636 160 b 669 274 636 250 642 274 z m 656 689 l 656 689 b 439 429 540 689 439 429 b 669 529 497 486 569 518 b 742 601 699 533 742 558 b 656 689 742 631 728 689 z m 193 617 l 193 617 b 107 529 136 617 107 574 b 193 457 107 486 150 457 b 410 357 281 457 353 429 b 193 617 410 357 324 617 z m 436 824 l 436 824 b 313 822 394 864 343 853 b 325 710 283 790 294 740 b 410 486 388 650 419 578 b 436 824 410 486 529 733 z "},"~":{"ha":831,"x_min":0,"x_max":0,"o":"m 140 274 l 140 274 b 183 204 176 274 183 249 b 140 135 183 161 176 135 b 128 136 136 135 131 135 l 128 272 b 140 274 132 274 136 274 z m 351 224 l 296 224 l 296 271 l 361 271 l 361 306 l 256 306 l 256 104 l 361 104 l 361 138 l 296 138 l 296 190 l 351 190 z m 138 101 l 138 101 b 224 204 200 101 224 133 b 139 308 224 274 201 308 b 88 303 125 308 106 306 l 88 104 b 138 101 106 101 126 101 z m 397 306 l 397 306 b 388 104 393 257 389 169 l 426 104 b 429 249 426 151 428 201 l 431 249 l 458 135 l 496 135 l 524 249 b 528 104 526 201 528 151 l 568 104 b 560 306 565 169 563 257 l 504 306 l 478 194 l 451 306 z m 669 101 l 669 101 b 744 204 725 101 744 133 b 669 308 744 275 725 308 b 596 204 614 308 596 275 b 669 101 596 133 614 101 z m 669 274 b 704 204 699 274 704 250 b 669 135 704 160 699 135 b 636 204 642 135 636 160 b 669 274 636 250 642 274 z m 656 689 l 656 689 b 439 429 540 689 439 429 b 669 529 497 486 569 518 b 742 601 699 533 742 558 b 656 689 742 631 728 689 z m 193 617 l 193 617 b 107 529 136 617 107 574 b 193 457 107 486 150 457 b 410 357 281 457 353 429 b 193 617 410 357 324 617 z m 436 824 l 436 824 b 313 822 394 864 343 853 b 325 710 283 790 294 740 b 410 486 388 650 419 578 b 436 824 410 486 529 733 z "}}}
